<svg id="SvgjsSvg1000" xmlns="http://www.w3.org/2000/svg" version="1.1" xmlns:xlink="http://www.w3.org/1999/xlink" xmlns:svgjs="http://svgjs.com/svgjs" width="100" height="107" viewBox="0 0 100 107"><title>icon</title><desc>Created with Avocode.</desc><defs id="SvgjsDefs1001"></defs><path id="SvgjsPath1007" d="M502.857 1537.15H493.92800000000005C492.94200000000006 1537.15 492.14300000000003 1537.95 492.14300000000003 1538.93C492.14300000000003 1539.92 492.942 1540.72 493.92800000000005 1540.72H502.857C503.843 1540.72 504.64300000000003 1539.92 504.64300000000003 1538.93C504.64300000000003 1537.95 503.843 1537.15 502.857 1537.15ZM502.857 1544.28H493.92800000000005C492.94200000000006 1544.28 492.14300000000003 1545.08 492.14300000000003 1546.07C492.14300000000003 1547.05 492.942 1547.85 493.92800000000005 1547.85H502.857C503.843 1547.85 504.64300000000003 1547.05 504.64300000000003 1546.07C504.64300000000003 1545.08 503.843 1544.28 502.857 1544.28ZM502.857 1551.42H493.92800000000005C492.94200000000006 1551.42 492.14300000000003 1552.22 492.14300000000003 1553.2C492.14300000000003 1554.18 492.942 1554.98 493.92800000000005 1554.98H502.857C503.843 1554.98 504.64300000000003 1554.18 504.64300000000003 1553.2C504.64300000000003 1552.22 503.843 1551.42 502.857 1551.42ZM502.857 1558.55H493.92800000000005C492.94200000000006 1558.55 492.14300000000003 1559.35 492.14300000000003 1560.33C492.14300000000003 1561.32 492.942 1562.12 493.92800000000005 1562.12H502.857C503.843 1562.12 504.64300000000003 1561.32 504.64300000000003 1560.33C504.64300000000003 1559.35 503.843 1558.55 502.857 1558.55ZM502.857 1565.68H493.92800000000005C492.94200000000006 1565.68 492.14300000000003 1566.48 492.14300000000003 1567.47C492.14300000000003 1568.45 492.942 1569.25 493.92800000000005 1569.25H502.857C503.843 1569.25 504.64300000000003 1568.45 504.64300000000003 1567.47C504.64300000000003 1566.48 503.843 1565.68 502.857 1565.68ZM502.857 1572.82H493.92800000000005C492.94200000000006 1572.82 492.14300000000003 1573.62 492.14300000000003 1574.6C492.14300000000003 1575.58 492.942 1576.3799999999999 493.92800000000005 1576.3799999999999H502.857C503.843 1576.3799999999999 504.64300000000003 1575.58 504.64300000000003 1574.6C504.64300000000003 1573.62 503.843 1572.82 502.857 1572.82ZM502.857 1579.95H493.92800000000005C492.94200000000006 1579.95 492.14300000000003 1580.75 492.14300000000003 1581.73C492.14300000000003 1582.72 492.942 1583.52 493.92800000000005 1583.52H502.857C503.843 1583.52 504.64300000000003 1582.72 504.64300000000003 1581.73C504.64300000000003 1580.75 503.843 1579.95 502.857 1579.95ZM502.857 1587.08H493.92800000000005C492.94200000000006 1587.08 492.14300000000003 1587.8799999999999 492.14300000000003 1588.87C492.14300000000003 1589.85 492.942 1590.6499999999999 493.92800000000005 1590.6499999999999H502.857C503.843 1590.6499999999999 504.64300000000003 1589.85 504.64300000000003 1588.87C504.64300000000003 1587.8799999999999 503.843 1587.08 502.857 1587.08ZM583.214 1530.02H561.7860000000001V1512.18C561.7860000000001 1511.2 560.9860000000001 1510.4 560.0000000000001 1510.4H551.0710000000001V1501.48C551.0710000000001 1500.5 550.2720000000002 1499.7 549.2860000000002 1499.7H536.7860000000002V1489H533.2140000000002V1499.7H520.7140000000002C519.7280000000002 1499.7 518.9290000000002 1500.5 518.9290000000002 1501.48V1510.4H510.0000000000002C509.01400000000024 1510.4 508.2140000000002 1511.2 508.2140000000002 1512.18V1530.02H486.78600000000023C485.7990000000002 1530.02 485.0000000000002 1530.82 485.0000000000002 1531.8V1594.22C485.0000000000002 1595.2 485.80000000000024 1596 486.78600000000023 1596H583.2140000000002C584.2000000000002 1596 585.0000000000001 1595.2 585.0000000000001 1594.22V1531.8C585.0000000000001 1530.82 584.2000000000002 1530.02 583.2140000000002 1530.02ZM508.214 1592.43H488.571V1533.5800000000002H508.21400000000006ZM522.5 1503.27H547.5V1510.4H522.5ZM558.214 1592.43H511.78600000000006V1513.97H558.214ZM581.429 1592.43H561.786V1533.5800000000002H581.429ZM576.071 1538.93C575.085 1538.93 574.2860000000001 1539.73 574.2860000000001 1540.72V1587.1200000000001C574.2860000000001 1588.1000000000001 575.085 1588.9 576.071 1588.9C577.057 1588.9 577.857 1588.1000000000001 577.857 1587.1200000000001V1540.72C577.857 1539.73 577.057 1538.93 576.071 1538.93ZM567.143 1538.93C566.157 1538.93 565.3570000000001 1539.73 565.3570000000001 1540.72V1587.1200000000001C565.3570000000001 1588.1000000000001 566.157 1588.9 567.143 1588.9C568.129 1588.9 568.928 1588.1000000000001 568.928 1587.1200000000001V1540.72C568.928 1539.73 568.129 1538.93 567.143 1538.93ZM529.643 1574.6H517.143C516.157 1574.6 515.3570000000001 1575.3999999999999 515.3570000000001 1576.3799999999999V1587.08C515.3570000000001 1588.07 516.157 1588.87 517.143 1588.87H529.643C530.629 1588.87 531.428 1588.07 531.428 1587.08V1576.3799999999999C531.428 1575.3999999999999 530.629 1574.6 529.643 1574.6ZM527.857 1585.3H518.929V1578.1699999999998H527.857ZM529.643 1556.77H517.143C516.157 1556.77 515.3570000000001 1557.57 515.3570000000001 1558.55V1569.25C515.3570000000001 1570.24 516.157 1571.03 517.143 1571.03H529.643C530.629 1571.03 531.428 1570.23 531.428 1569.25V1558.55C531.428 1557.57 530.629 1556.77 529.643 1556.77ZM527.857 1567.47H518.929V1560.33H527.857ZM529.643 1538.93H517.143C516.157 1538.93 515.3570000000001 1539.73 515.3570000000001 1540.72V1551.42C515.3570000000001 1552.4 516.157 1553.2 517.143 1553.2H529.643C530.629 1553.2 531.428 1552.4 531.428 1551.42V1540.72C531.428 1539.73 530.629 1538.93 529.643 1538.93ZM527.857 1549.63H518.929V1542.5H527.857ZM529.643 1521.1H517.143C516.157 1521.1 515.3570000000001 1521.8999999999999 515.3570000000001 1522.8799999999999V1533.58C515.3570000000001 1534.57 516.157 1535.37 517.143 1535.37H529.643C530.629 1535.37 531.428 1534.57 531.428 1533.58V1522.8799999999999C531.428 1521.8999999999999 530.629 1521.1 529.643 1521.1ZM527.857 1531.8H518.929V1524.6699999999998H527.857ZM552.857 1574.6H540.357C539.371 1574.6 538.571 1575.3999999999999 538.571 1576.3799999999999V1587.08C538.571 1588.07 539.371 1588.87 540.357 1588.87H552.857C553.843 1588.87 554.6429999999999 1588.07 554.6429999999999 1587.08V1576.3799999999999C554.6429999999999 1575.3999999999999 553.843 1574.6 552.857 1574.6ZM551.071 1585.3H542.143V1578.1699999999998H551.071ZM552.857 1556.77H540.357C539.371 1556.77 538.571 1557.57 538.571 1558.55V1569.25C538.571 1570.24 539.371 1571.03 540.357 1571.03H552.857C553.843 1571.03 554.6429999999999 1570.23 554.6429999999999 1569.25V1558.55C554.6429999999999 1557.57 553.843 1556.77 552.857 1556.77ZM551.071 1567.47H542.143V1560.33H551.071ZM552.857 1538.93H540.357C539.371 1538.93 538.571 1539.73 538.571 1540.72V1551.42C538.571 1552.4 539.371 1553.2 540.357 1553.2H552.857C553.843 1553.2 554.6429999999999 1552.4 554.6429999999999 1551.42V1540.72C554.6429999999999 1539.73 553.843 1538.93 552.857 1538.93ZM551.071 1549.63H542.143V1542.5H551.071ZM552.857 1521.1H540.357C539.371 1521.1 538.571 1521.8999999999999 538.571 1522.8799999999999V1533.58C538.571 1534.57 539.371 1535.37 540.357 1535.37H552.857C553.843 1535.37 554.6429999999999 1534.57 554.6429999999999 1533.58V1522.8799999999999C554.6429999999999 1521.8999999999999 553.843 1521.1 552.857 1521.1ZM551.071 1531.8H542.143V1524.6699999999998H551.071Z " fill="#ffffff" fill-opacity="1" transform="matrix(1,0,0,1,-485,-1489)"></path></svg>