<svg id="SvgjsSvg1008" xmlns="http://www.w3.org/2000/svg" version="1.1" xmlns:xlink="http://www.w3.org/1999/xlink" xmlns:svgjs="http://svgjs.com/svgjs" width="36" height="37" viewBox="0 0 36 37"><title>icon</title><desc>Created with Avocode.</desc><defs id="SvgjsDefs1009"></defs><path id="SvgjsPath1010" d="M1026.73 63.2743C1023.32 59.873799999999996 1018.8100000000001 57.9997 1014 57.9997C1009.19 57.9997 1004.68 59.873799999999996 1001.27 63.2743C997.874 66.6753 996 71.1899 996 75.9998C996 80.8095 997.874 85.3244 1001.27 88.7251C1004.68 92.1259 1009.1899999999999 94 1014 94C1016.93 94 1019.83 93.2842 1022.4 91.9195C1023.05 91.5802 1023.3 90.776 1022.9599999999999 90.1268C1022.6199999999999 89.4775 1021.81 89.23400000000001 1021.16 89.5734C1018.9699999999999 90.7316 1016.5 91.34410000000001 1014 91.34410000000001C1005.54 91.34410000000001 998.656 84.46110000000002 998.656 75.99980000000001C998.656 67.53840000000001 1005.54 60.6555 1014 60.6555C1022.46 60.6555 1029.34 67.53840000000001 1029.34 75.99980000000001C1029.34 78.84740000000001 1028.55 80.4702 1027.8799999999999 81.32610000000001C1027.1599999999999 82.24810000000001 1026.1999999999998 82.77190000000002 1025.2399999999998 82.77190000000002C1023.9099999999997 82.77190000000002 1022.5599999999998 81.70980000000002 1022.5599999999998 79.33410000000002V68.99900000000002C1022.5599999999998 68.26840000000003 1021.9599999999998 67.67110000000002 1021.2299999999998 67.67110000000002C1020.4999999999998 67.67110000000002 1019.8999999999997 68.26840000000003 1019.8999999999997 68.99900000000002V69.58170000000003C1018.2499999999998 67.92190000000002 1015.9699999999998 66.89630000000002 1013.4499999999997 66.89630000000002C1008.4199999999997 66.88910000000003 1004.3399999999997 70.97590000000002 1004.3399999999997 75.99980000000002C1004.3399999999997 81.02360000000002 1008.4199999999997 85.11030000000002 1013.4499999999997 85.11030000000002C1014.3399999999997 85.11030000000002 1015.2199999999997 84.98510000000002 1016.0599999999997 84.72680000000003C1016.7599999999998 84.52020000000003 1017.1599999999997 83.77520000000003 1016.9499999999997 83.07410000000003C1016.7399999999997 82.37320000000003 1015.9999999999997 81.97510000000003 1015.2999999999997 82.18180000000002C1014.6999999999997 82.35860000000002 1014.0699999999997 82.45470000000003 1013.4499999999997 82.45470000000003C1009.8899999999998 82.45470000000003 1006.9899999999997 79.56290000000003 1006.9899999999997 75.99980000000004C1006.9899999999997 72.44410000000003 1009.8799999999997 69.54490000000004 1013.4499999999997 69.54490000000004C1017.0099999999996 69.54490000000004 1019.8999999999997 72.43670000000004 1019.8999999999997 75.99980000000004V79.33410000000003C1019.8999999999997 83.33240000000004 1022.5899999999998 85.42770000000003 1025.2399999999998 85.42770000000003C1027.0199999999998 85.42770000000003 1028.7499999999998 84.52770000000002 1029.9699999999998 82.95620000000002C1031.2999999999997 81.25220000000003 1031.9999999999998 78.84740000000002 1031.9999999999998 75.99980000000002C1031.9999999999998 71.18990000000002 1030.1299999999999 66.67530000000002 1026.7299999999998 63.274300000000025Z " fill="#c70000" fill-opacity="1" transform="matrix(1,0,0,1,-996,-57)"></path></svg>