<svg id="SvgjsSvg1011" xmlns="http://www.w3.org/2000/svg" version="1.1" xmlns:xlink="http://www.w3.org/1999/xlink" xmlns:svgjs="http://svgjs.com/svgjs" width="36" height="36" viewBox="0 0 36 36"><title>Icon</title><desc>Created with Avocode.</desc><defs id="SvgjsDefs1012"></defs><path id="SvgjsPath1013" d="M1275 75.9993C1275 66.0599 1266.94 58.00240000000001 1257 58.00240000000001C1247.06 58.00240000000001 1239 66.05990000000001 1239 75.9993C1239 85.9385 1247.06 93.9958 1257 93.9958C1266.94 93.9958 1275 85.9385 1275 75.9993ZM1241.57 75.9993C1241.57 67.4782 1248.48 60.570100000000004 1257 60.570100000000004C1265.52 60.570100000000004 1272.43 67.4782 1272.43 75.9993C1272.43 84.52040000000001 1265.52 91.42840000000001 1257 91.42840000000001C1248.48 91.42840000000001 1241.57 84.52040000000001 1241.57 75.9993ZM1257.69 86.3869V75.99929999999999H1261.1200000000001L1261.66 72.55659999999999H1257.69V70.8307C1257.69 69.9327 1257.98 69.07509999999999 1259.27 69.07509999999999H1261.85V65.63969999999999H1258.1899999999998C1255.12 65.63969999999999 1254.2799999999997 67.6651 1254.2799999999997 70.4729V72.5556H1252.1699999999998V75.9993H1254.2799999999997V86.38690000000001Z " fill="#48589b" fill-opacity="1" transform="matrix(1,0,0,1,-1239,-58)"></path></svg>