<svg id="SvgjsSvg1008" xmlns="http://www.w3.org/2000/svg" version="1.1" xmlns:xlink="http://www.w3.org/1999/xlink" xmlns:svgjs="http://svgjs.com/svgjs" width="83" height="104" viewBox="0 0 83 104"><title>icon</title><desc>Created with Avocode.</desc><defs id="SvgjsDefs1009"></defs><path id="SvgjsPath1010" d="M1104.92 1492H1052.29C1051.1399999999999 1492 1050.21 1492.93 1050.21 1494.07V1500.72H1043.52C1042.37 1500.72 1041.43 1501.65 1041.43 1502.79V1509.44H1034.75C1033.6 1509.44 1032.66 1510.3700000000001 1032.66 1511.51V1518.05H1026.0800000000002C1024.93 1518.05 1024.0000000000002 1518.98 1024.0000000000002 1520.1299999999999V1593.9299999999998C1024.0000000000002 1595.07 1024.9300000000003 1595.9999999999998 1026.0800000000002 1595.9999999999998H1078.7100000000003C1079.8600000000004 1595.9999999999998 1080.7900000000002 1595.0699999999997 1080.7900000000002 1593.9299999999998V1587.3899999999999H1087.3700000000001C1088.5200000000002 1587.3899999999999 1089.46 1586.4599999999998 1089.46 1585.31V1578.6699999999998H1096.15C1097.3000000000002 1578.6699999999998 1098.23 1577.7399999999998 1098.23 1576.59V1569.9499999999998H1104.92C1106.0700000000002 1569.9499999999998 1107 1569.0199999999998 1107 1567.87V1494.07C1107 1492.9299999999998 1106.07 1492 1104.92 1492ZM1076.63 1591.86H1028.17V1522.1999999999998H1076.63ZM1085.29 1583.24H1080.79V1520.13C1080.79 1518.98 1079.86 1518.0500000000002 1078.71 1518.0500000000002H1036.83V1513.5800000000002H1085.29ZM1094.06 1574.52H1089.46V1511.51C1089.46 1510.37 1088.52 1509.44 1087.3700000000001 1509.44H1045.6000000000001V1504.8600000000001H1094.0600000000002ZM1098.23 1565.8V1502.79C1098.23 1501.6499999999999 1097.3 1500.72 1096.15 1500.72H1054.3700000000001V1496.14H1102.8300000000002V1565.8000000000002ZM1070.05 1572.4H1034.75C1033.6 1572.4 1032.66 1573.3200000000002 1032.66 1574.47C1032.66 1575.6100000000001 1033.6000000000001 1576.54 1034.75 1576.54H1070.05C1071.2 1576.54 1072.1299999999999 1575.61 1072.1299999999999 1574.47C1072.1299999999999 1573.32 1071.1999999999998 1572.4 1070.05 1572.4ZM1070.05 1580.48H1034.75C1033.6 1580.48 1032.66 1581.41 1032.66 1582.55C1032.66 1583.69 1033.6000000000001 1584.62 1034.75 1584.62H1070.05C1071.2 1584.62 1072.1299999999999 1583.6899999999998 1072.1299999999999 1582.55C1072.1299999999999 1581.4099999999999 1071.1999999999998 1580.48 1070.05 1580.48ZM1070.05 1529.43H1034.75C1033.6 1529.43 1032.66 1530.3600000000001 1032.66 1531.5C1032.66 1532.65 1033.6000000000001 1533.58 1034.75 1533.58H1070.05C1071.2 1533.58 1072.1299999999999 1532.6499999999999 1072.1299999999999 1531.5C1072.1299999999999 1530.36 1071.1999999999998 1529.43 1070.05 1529.43ZM1070.05 1537.52H1034.75C1033.6 1537.52 1032.66 1538.44 1032.66 1539.59C1032.66 1540.73 1033.6000000000001 1541.6599999999999 1034.75 1541.6599999999999H1070.05C1071.2 1541.6599999999999 1072.1299999999999 1540.7299999999998 1072.1299999999999 1539.59C1072.1299999999999 1538.4399999999998 1071.1999999999998 1537.52 1070.05 1537.52ZM1070.05 1545.6H1068.98C1067.83 1545.6 1066.89 1546.52 1066.89 1547.6699999999998C1066.89 1548.81 1067.8300000000002 1549.7399999999998 1068.98 1549.7399999999998H1070.05C1071.2 1549.7399999999998 1072.1299999999999 1548.8099999999997 1072.1299999999999 1547.6699999999998C1072.1299999999999 1546.5199999999998 1071.1999999999998 1545.6 1070.05 1545.6ZM1061.49 1545.6H1034.75C1033.6 1545.6 1032.66 1546.52 1032.66 1547.6699999999998C1032.66 1548.81 1033.6000000000001 1549.7399999999998 1034.75 1549.7399999999998H1061.49C1062.64 1549.7399999999998 1063.57 1548.8099999999997 1063.57 1547.6699999999998C1063.57 1546.5199999999998 1062.6399999999999 1545.6 1061.49 1545.6Z " fill="#ffffff" fill-opacity="1" transform="matrix(1,0,0,1,-1024,-1492)"></path></svg>