<svg id="SvgjsSvg1000" xmlns="http://www.w3.org/2000/svg" version="1.1" xmlns:xlink="http://www.w3.org/1999/xlink" xmlns:svgjs="http://svgjs.com/svgjs" width="37" height="37" viewBox="0 0 37 37"><title>icon</title><desc>Created with Avocode.</desc><defs id="SvgjsDefs1001"></defs><path id="SvgjsPath1007" d="M843.33 85.036C842.923 84.59870000000001 842.5010000000001 84.184 842.087 83.7839C841.879 83.5838 841.672 83.3764 841.465 83.16890000000001L839.6600000000001 81.361C838.8900000000001 80.5908 837.9870000000001 80.1832 837.0630000000001 80.1832C836.1300000000001 80.1832 835.2350000000001 80.5908 834.4650000000001 81.361C834.2800000000002 81.54650000000001 834.0880000000002 81.7318 833.9030000000001 81.9169C833.4740000000002 82.3391 833.0300000000001 82.7762 832.6010000000001 83.2357C831.8390000000002 82.86519999999999 831.0620000000001 82.3539 830.1590000000001 81.64259999999999C828.9830000000001 80.67969999999998 827.9760000000001 79.71679999999999 827.0810000000001 78.69429999999998C826.6000000000001 78.13879999999999 825.7560000000001 78.07929999999999 825.2020000000001 78.56839999999998C824.6470000000002 79.04989999999998 824.5870000000001 79.89469999999999 825.0760000000001 80.45019999999998C826.0670000000001 81.59109999999998 827.1850000000002 82.66529999999999 828.4870000000001 83.72449999999998C828.494 83.72449999999998 828.494 83.73209999999997 828.5020000000001 83.73209999999997C829.811 84.76899999999998 830.9140000000001 85.45069999999997 832.09 85.93209999999998C832.12 85.94719999999998 832.149 85.95429999999998 832.1790000000001 85.96169999999998C832.46 86.05799999999998 833.3040000000001 86.33959999999998 834.1320000000001 85.51729999999998C834.147 85.50249999999998 834.1690000000001 85.48029999999997 834.1840000000001 85.46539999999997C834.6870000000001 84.89509999999997 835.22 84.37639999999998 835.782 83.82089999999998C835.975 83.63559999999998 836.167 83.44289999999998 836.36 83.25049999999997C836.537 83.07279999999997 836.811 82.85039999999998 837.077 82.85039999999998C837.344 82.85039999999998 837.61 83.06519999999998 837.795 83.25049999999997L839.5999999999999 85.05799999999998C839.8149999999999 85.27279999999998 840.0369999999999 85.48779999999998 840.2439999999999 85.69509999999998C840.6589999999999 86.09519999999998 841.0429999999999 86.48029999999999 841.4129999999999 86.87329999999999C841.4209999999999 86.88789999999999 841.4359999999999 86.89549999999998 841.4429999999999 86.90239999999999C841.7239999999998 87.18399999999998 842.0269999999998 87.62849999999999 841.4279999999999 88.26589999999999L839.1709999999999 90.52519999999998C838.6899999999999 91.00699999999999 838.1579999999999 91.25869999999999 837.4839999999999 91.31789999999998C836.3369999999999 91.41419999999998 835.1159999999999 91.19189999999998 833.526 90.59939999999997C830.877 89.62169999999998 828.405 88.13239999999998 825.7339999999999 85.90989999999998C822.5079999999999 83.20589999999999 819.9699999999999 79.96099999999998 818.18 76.26449999999998C817.543 74.92339999999999 816.7959999999999 73.14549999999998 816.67 71.25669999999998C816.6039999999999 70.20469999999997 816.885 69.44899999999998 817.5659999999999 68.81189999999998C818.0609999999999 68.39689999999997 818.4979999999999 67.94509999999998 818.9119999999999 67.51539999999999C819.179 67.23399999999998 819.43 66.97459999999998 819.6969999999999 66.73019999999998L819.7039999999998 66.72269999999999C820.2289999999998 66.21909999999998 820.6659999999998 66.21149999999999 821.1539999999999 66.70039999999999L824.8019999999999 70.35249999999999C824.8089999999999 70.36009999999999 824.8169999999999 70.36749999999999 824.824 70.3749C824.9799999999999 70.5232 825.165 70.75269999999999 825.1719999999999 71.00439999999999C825.1719999999999 71.2713 824.9719999999999 71.5307 824.8089999999999 71.701L822.5449999999998 73.9678C822.0269999999998 74.4864 822.0269999999998 75.3312 822.5449999999998 75.8569C823.0629999999999 76.37559999999999 823.9069999999998 76.37559999999999 824.4319999999998 75.8569L826.6959999999998 73.5903C827.4579999999997 72.8269 827.8509999999998 71.9308 827.8429999999998 70.9824C827.8359999999999 70.0561 827.4359999999998 69.1823 826.6889999999999 68.4637L823.0479999999999 64.8187C821.5239999999999 63.29280000000001 819.4519999999999 63.28540000000001 817.8759999999999 64.7963C817.5659999999999 65.0855 817.2839999999999 65.3819 817.0029999999998 65.6707C816.6109999999998 66.0784 816.2409999999999 66.4634 815.8419999999999 66.7967C815.8269999999999 66.8117 815.8119999999999 66.8265 815.7899999999998 66.8412C814.4949999999999 68.019 813.9029999999999 69.5599 814.0139999999999 71.4269C814.1689999999999 73.7681 815.0349999999999 75.8569 815.7749999999999 77.4126V77.4202C817.7359999999999 81.4649 820.5029999999998 85.006 824.0179999999999 87.95469999999999C826.9259999999999 90.36979999999998 829.6479999999999 92.00699999999999 832.5859999999999 93.09599999999999C833.6659999999999 93.49619999999999 835.2419999999998 93.99949999999998 836.9889999999999 93.99949999999998C837.218 93.99949999999998 837.4549999999999 93.99219999999998 837.6909999999999 93.97039999999998H837.699C838.9939999999999 93.85909999999998 840.1179999999999 93.33309999999999 841.043 92.40709999999999L843.307 90.13989999999998C843.315 90.13279999999999 843.322 90.12509999999999 843.33 90.11769999999999C844.787 88.59929999999999 844.7800000000001 86.50999999999999 843.33 85.03599999999999ZM842.804 75.9757C842.346 73.27890000000001 841.073 70.8197 839.127 68.8638C837.1959999999999 66.9228 834.7389999999999 65.64829999999999 832.0379999999999 65.1895C831.3129999999999 65.0633 830.6249999999999 65.5522 830.4989999999999 66.2783C830.3739999999999 67.0043 830.862 67.6932 831.5869999999999 67.8194C833.7329999999998 68.1821 835.6939999999998 69.2043 837.2469999999998 70.7602C838.8009999999998 72.31569999999999 839.8219999999999 74.2791 840.1849999999998 76.4276C840.2959999999998 77.0793 840.8579999999998 77.53869999999999 841.4949999999998 77.53869999999999C841.5689999999997 77.53869999999999 841.6429999999998 77.5312 841.7169999999998 77.51639999999999C842.4419999999998 77.3902 842.9299999999997 76.70139999999999 842.8039999999997 75.97569999999999ZM850.011 75.6496C849.264 71.2343 847.177 67.2116 843.9879999999999 64.01870000000001C840.799 60.82550000000001 836.781 58.73670000000001 832.371 57.98840000000001C831.646 57.86250000000001 830.958 58.35160000000001 830.832 59.07740000000001C830.707 59.803500000000014 831.195 60.49240000000001 831.92 60.61840000000001C835.7819999999999 61.27740000000001 839.305 63.10010000000001 842.101 65.90060000000001C844.898 68.70070000000001 846.726 72.22720000000001 847.377 76.09420000000001C847.4879999999999 76.74620000000002 848.05 77.20540000000001 848.6869999999999 77.20540000000001C848.7609999999999 77.20540000000001 848.8349999999999 77.19800000000001 848.9089999999999 77.183C849.6489999999999 77.06450000000001 850.1369999999998 76.3756 850.0109999999999 75.6496Z " fill="#c70000" fill-opacity="1" transform="matrix(1,0,0,1,-814,-57)"></path></svg>