<?xml version="1.0" encoding="utf-8"?>
<!-- Generator: Adobe Illustrator 19.0.1, SVG Export Plug-In . SVG Version: 6.00 Build 0)  -->
<svg version="1.1" id="Layer_1" xmlns="http://www.w3.org/2000/svg" xmlns:xlink="http://www.w3.org/1999/xlink" x="0px" y="0px"
	 viewBox="0 0 511 155.3" style="enable-background:new 0 0 511 155.3;" xml:space="preserve">
<style type="text/css">
	.st0{fill:#BE3A26;}
	.st1{fill:#FFFFFF;}
</style>
<g>
	<g>
		<path d="M0.4,103.8V1.7h22.9l15.5,45.2h0.3V1.7h20.5v102.1H37.4L21.2,50.9h-0.3v52.9H0.4z"/>
		<path d="M130.9,61.7v42.1H107V61.7l-19.6-60h22.9l8.5,33.3h0.3l8.5-33.3h22.9L130.9,61.7z"/>
		<path d="M177.8,103.8V1.7h51.7v21h-27.9v17.3h23V62h-23v19.9H231v21.9H177.8z"/>
		<path d="M286.7,75.9c0,6.1,2.6,8.5,6.3,8.5c3.7,0,6.5-2.4,6.5-8.5V58h23.9c-0.1,13.4-0.7,21.3-1.8,26.7
			c-3.1,14.8-15.4,20.8-29.4,20.8c-24.2,0-31.3-14.8-31.3-52.7c0-38,7.1-52.7,31.3-52.7c14.1,0,25.9,5.8,29.4,20.2
			c1.1,5,1.7,12.2,1.8,24.4h-23.9V29.6c0-6.1-2.8-8.5-6.5-8.5c-3.7,0-6.3,2.4-6.3,8.5V75.9z"/>
		<path d="M355.8,22.7C359.2,6.3,370.3,0,385.5,0c15.2,0,26.3,6.3,29.7,22.7c1.1,5.3,1.6,14.4,1.6,30s-0.4,24.7-1.6,30
			c-3.4,16.5-14.5,22.7-29.7,22.7c-15.2,0-26.3-6.3-29.7-22.7c-1.1-5.3-1.6-14.4-1.6-30S354.7,28,355.8,22.7z M379.3,75.9
			c0,6.1,2.6,8.5,6.3,8.5c3.7,0,6.3-2.4,6.3-8.5V29.6c0-6.1-2.6-8.5-6.3-8.5c-3.7,0-6.3,2.4-6.3,8.5V75.9z"/>
		<path d="M451.9,103.8V1.7h22.9l15.5,45.2h0.3V1.7H511v102.1h-22.2l-16.2-52.9h-0.3v52.9H451.9z"/>
	</g>
	<rect y="135.3" class="st0" width="256.1" height="20"/>
	<rect x="254.6" y="135.3" width="256.1" height="20"/>
	<g>
		<g>
			<path class="st1" d="M269.9,150.7v-10.8h2.5v10.8H269.9z"/>
		</g>
		<g>
			<path class="st1" d="M288.2,144.6L288.2,144.6l0.2,6.1H286v-10.8h2.6l2,6h0l-0.2-6h2.4v10.8h-2.6L288.2,144.6z"/>
		</g>
		<g>
			<path class="st1" d="M311.3,143.7V143c0-0.9-0.3-1.4-0.8-1.4c-0.8,0-1,0.4-1,1.1l0,5.4c0,0.6,0.2,1,0.9,1c0.9,0,0.9-0.9,0.9-1.6
				v-1h2.5v1.3c0,1.9-1.1,3.2-3.7,3.2c-2.3,0-3.2-1.2-3.2-3.4v-4.4c0-2.4,1.1-3.5,3.4-3.5c2.2,0,3.5,0.9,3.5,3.1v0.9H311.3z"/>
		</g>
		<g>
			<path class="st1" d="M334.8,147.3c0,2.4-0.9,3.7-3.4,3.7c-2.6,0-3.5-1.3-3.5-3.7v-4.4c0-2.1,1.2-3.2,3.5-3.2
				c2.2,0,3.4,1.2,3.4,3.2V147.3z M332.3,143c0-0.7-0.1-1.5-0.9-1.5c-0.8,0-0.9,0.8-0.9,1.5v4.4c0,0.6,0.1,1.5,0.9,1.5
				c0.8,0,0.9-0.9,0.9-1.5V143z"/>
		</g>
		<g>
			<path class="st1" d="M351.5,150.7H349v-10.8h3.7c2.1,0,3.1,0.8,3.1,3c0,1.2-0.3,2-1.3,2.5v0c0.7,0.2,1.2,0.6,1.3,1.4
				c0.1,0.9,0.1,2.7,0.2,3.4c0.1,0.1,0.1,0.3,0.2,0.4v0.1h-2.8c-0.1-0.2-0.1-0.4-0.1-0.6c0-1,0-1.8-0.1-2.5
				c-0.1-0.7-0.3-1.1-0.9-1.1h-0.8V150.7z M351.5,144.5h0.9c0.7,0,0.9-0.7,0.9-1.3c0-1.3-0.5-1.3-1.8-1.3V144.5z"/>
		</g>
		<g>
			<path class="st1" d="M369.3,150.7v-10.8h3c1,0,2.4,0.1,3.1,0.9c0.6,0.7,0.7,1.5,0.7,2.4c0,1.2-0.3,2.5-1.4,3
				c-0.9,0.4-1.9,0.3-2.9,0.3v4.2H369.3z M371.9,144.5c0.5,0,1,0,1.4-0.3c0.3-0.3,0.3-0.7,0.3-1.1c0-0.4,0-1.1-0.5-1.3
				c-0.2-0.1-0.6-0.1-1-0.1h-0.3V144.5z"/>
		</g>
		<g>
			<path class="st1" d="M396.3,147.3c0,2.4-0.9,3.7-3.4,3.7c-2.6,0-3.5-1.3-3.5-3.7v-4.4c0-2.1,1.2-3.2,3.5-3.2
				c2.2,0,3.4,1.2,3.4,3.2V147.3z M393.7,143c0-0.7-0.1-1.5-0.9-1.5c-0.8,0-0.9,0.8-0.9,1.5v4.4c0,0.6,0.1,1.5,0.9,1.5
				c0.8,0,0.9-0.9,0.9-1.5V143z"/>
		</g>
		<g>
			<path class="st1" d="M413,150.7h-2.5v-10.8h3.7c2.1,0,3.1,0.8,3.1,3c0,1.2-0.3,2-1.3,2.5v0c0.7,0.2,1.2,0.6,1.3,1.4
				c0.1,0.9,0.1,2.7,0.2,3.4c0.1,0.1,0.1,0.3,0.2,0.4v0.1h-2.8c-0.1-0.2-0.1-0.4-0.1-0.6c0-1,0-1.8-0.1-2.5
				c-0.1-0.7-0.3-1.1-0.9-1.1H413V150.7z M413,144.5h0.9c0.7,0,0.9-0.7,0.9-1.3c0-1.3-0.5-1.3-1.8-1.3V144.5z"/>
		</g>
		<g>
			<path class="st1" d="M430.1,150.7l2.4-10.8h3.1l2.4,10.8h-2.6l-0.4-2.1h-2l-0.3,2.1H430.1z M434,141.8L434,141.8l-0.8,4.9h1.5
				L434,141.8z"/>
		</g>
		<g>
			<path class="st1" d="M449.7,139.9h6.6v2.2h-2v8.7h-2.5V142h-2V139.9z"/>
		</g>
		<g>
			<path class="st1" d="M469.5,150.7v-10.8h5.8v2.2H472v2h3.2v2.2H472v2.3h3.5v2.2H469.5z"/>
		</g>
		<g>
			<path class="st1" d="M488.9,150.7v-10.8h2.8c0.9,0,2,0,2.9,0.5c1,0.6,1.1,1.6,1.1,2.7v4.8c0,1.1-0.3,1.9-1.1,2.3
				c-0.7,0.4-1.5,0.5-2.3,0.5H488.9z M491.5,148.8c1.7,0.1,1.7-0.6,1.7-2v-3.5c0-1.3-0.4-1.3-1.7-1.4V148.8z"/>
		</g>
	</g>
</g>
</svg>
